<?xml version="1.0" encoding="UTF-8"?>
<svg xmlns="http://www.w3.org/2000/svg" version="1.1" xmlns:xlink="http://www.w3.org/1999/xlink" viewBox="0 0 104.2 104.2">
  <!-- Generator: Adobe Illustrator 29.3.1, SVG Export Plug-In . SVG Version: 2.1.0 Build 151)  -->
  <defs>
    <style>
      .st0 {
        fill: #65402e;
      }

      .st1 {
        fill: none;
      }

      .st2 {
        fill: #8e7c54;
      }

      .st3 {
        fill: #d4b096;
      }

      .st4 {
        opacity: .4;
      }

      .st5 {
        fill: #ccfffd;
      }

      .st6 {
        fill: #ddd1c3;
      }

      .st7 {
        clip-path: url(#clippath);
      }

      .st8 {
        opacity: .7;
      }
    </style>
    <clipPath id="clippath">
      <rect class="st1" x="-628.1" y="-527.1" width="750" height="500"/>
    </clipPath>
  </defs>
  <g id="BACKGROUND">
    <g class="st7">
      <g>
        <g class="st4">
          <g>
            <path class="st3" d="M75.9,42.8c-22.5.3-42.7-5.3-61.8-15.5C-3,18.1-15.3,4.4-24.2-12.6c-2.6-4.9-5.1-9.9-7.1-15.1-2.5-6.6-6.8-11.1-13.4-13.7-4-1.6-7.9-3.5-11.6-5.6-13.5-7.5-20.4-19.4-21-34.7-.7-16.1,5.4-29.9,16-41.8,4.4-5,9.3-9.6,14.2-14.2,3.7-3.5,8.1-5.8,13.5-6,.8,0,1.6-.2,2.3-.6,5.9-3,11.8-6,17.6-9.1,5.5-3,9.6-7.4,13-12.7,3.3-5.2,6.9-10.3,10.8-15.2,8.1-10.2,19.1-16.2,30.9-20.9,17.3-7,35-12.2,53.5-14.7,27.1-3.7,52.9.7,76.7,14.3,4.2,2.4,8.2,5.6,11.8,8.8,7.2,6.6,10.2,15,9.6,24.7-.4,6.7-1.1,13.3-1.6,20-.3,4.9,1.1,9.3,3.8,13.3,3.3,4.8,6.8,9.5,10.1,14.2,10.8,15.5,18,32.2,18.2,51.4.2,16.1-4.5,30.7-15.2,42.9-7.3,8.4-17,13.3-27.2,17.1-8.2,3.1-16.5,5.9-24.8,8.5-10.8,3.5-20,9.3-27.6,17.7-4.2,4.6-8.6,9-13.2,13.1-8.4,7.4-18.6,10.9-29.5,12.4-3.5.5-7,.7-9.6.9Z"/>
            <path class="st3" d="M-28.7,25.9c4.6.6,9.2,2.2,11.8,7.1.3.5,1,.8,1.5,1.1,4.9,3.4,10.5,4.2,16.3,4.8,3.6.4,7.1,1,10.1,3.2,4.6,3.4,5.1,8.3,1,12.2-6.1,5.9-13.1,9-21.7,6.6-1.7-.5-3.5-1.2-4.9-2.4-5.8-4.7-12.4-6.5-19.6-7.1-3.7-.3-7.1-1.8-9.7-4.7-3.6-3.9-4.7-11.1.9-15.4,4.1-3.1,8.5-5.2,14.2-5.5Z"/>
          </g>
        </g>
        <g class="st8">
          <path class="st2" d="M122.7,4.3c0,2.8-.4,4.9-1.5,6.9-3.4,6.1-10.9,4.7-13.6.5-2.4-3.8-3.7-8-3.3-12.5.1-1.5.7-3.2,1.5-4.5,1.1-1.9,2.9-2.7,5.1-2.9,3-.4,5.4.8,7.6,2.6,2.3,1.9,3.4,4.5,3.9,7.4.2,1,.2,2.1.3,2.6ZM113.4,12.5c-.7-3.4-1.4-6.7-2.1-10-.5-2-1.1-4.1-.6-6.2.2-.8.4-1.6.6-2.5-2.1,0-3.4,1-4.2,2.7-.9,1.9-1.4,3.9-1.1,6.1.4,2.7,1,5.2,2.4,7.5,1,1.6,2.4,2.7,4.9,2.4ZM114,12.2c1.4-.6,2.1-1.5,2.5-2.6,2.1-5.1,1.1-10-1.2-14.8-.2-.4-.5-.8-.8-1-.4-.3-1.1-.5-1.2.2-.4,1.7-1,3.5-.8,5.2.2,3,.9,6,1.3,8.9.2,1.3.2,2.6.3,4.1ZM118.3-4c.4,2.7,1.1,5.5,1.3,8.3.2,2.9-.3,5.7-1.9,8.5,4.9-3.4,5-12.5.6-16.8Z"/>
        </g>
      </g>
    </g>
  </g>
  <g id="OBJECTS">
    <g>
      <path class="st0" d="M51.8,33.6h-21.7v20.1c0,10.6,10.6,17,21.7,17s21.7-6.5,21.7-17v-20.1h-21.7Z"/>
      <path class="st0" d="M70.4,60c-1.1,0-2.3,0-3.5-.2l.3-3c11.3,1.3,17.4-4.6,19.2-10.1,1.4-4.1.5-8.1-2.2-9.6-5.1-2.9-11.8,4.9-11.9,4.9l-2.3-1.9c.3-.4,8.4-9.8,15.7-5.6,3.9,2.3,5.4,7.7,3.6,13.2-2,5.9-8,12.3-18.9,12.3Z"/>
      <path class="st6" d="M70.4,36.6v17.1c0,9.1-9.6,14-18.7,14s-18.7-4.9-18.7-14v-17.1h37.3"/>
      <g>
        <path class="st5" d="M68.3,39.5v13.2h-33v-13.2h33Z"/>
        <path class="st0" d="M68.3,52.7h0c0,11.4-14.4,12.4-16.5,12.4s-16.5-1-16.5-12.4h33Z"/>
      </g>
    </g>
  </g>
</svg>