<?xml version="1.0" encoding="UTF-8"?>
<svg id="OBJECTS" xmlns="http://www.w3.org/2000/svg" version="1.1" xmlns:xlink="http://www.w3.org/1999/xlink" viewBox="0 0 104.2 104.2">
  <!-- Generator: Adobe Illustrator 29.3.1, SVG Export Plug-In . SVG Version: 2.1.0 Build 151)  -->
  <defs>
    <style>
      .st0 {
        fill: #65402e;
      }

      .st1 {
        fill: none;
      }

      .st2 {
        fill: #ddd1c3;
      }
    </style>
    <clipPath id="clippath">
      <rect class="st1" y="-527.1" width="750" height="500"/>
    </clipPath>
  </defs>
  <path class="st0" d="M51.8,33.6h-21.7v20.1c0,10.6,10.6,17,21.7,17s21.7-6.5,21.7-17v-20.1h-21.7Z"/>
  <path class="st0" d="M70.4,60c-1.1,0-2.3,0-3.5-.2l.3-3c11.3,1.3,17.4-4.6,19.2-10.1,1.4-4.1.5-8.1-2.2-9.6-5.1-2.9-11.8,4.9-11.9,4.9l-2.3-1.9c.3-.4,8.4-9.8,15.7-5.6,3.9,2.3,5.4,7.7,3.6,13.2-2,5.9-8,12.3-18.9,12.3Z"/>
  <path class="st2" d="M70.4,36.6v17.1c0,9.1-9.6,14-18.7,14s-18.7-4.9-18.7-14v-17.1h37.3"/>
  <path class="st0" d="M51.8,39.5h-16.5v13.2c0,11.4,14.4,12.4,16.5,12.4s16.5-1,16.5-12.4v-13.2h-16.5Z"/>
</svg>