<?xml version="1.0" encoding="UTF-8"?>
<svg xmlns="http://www.w3.org/2000/svg" version="1.1" xmlns:xlink="http://www.w3.org/1999/xlink" viewBox="0 0 104.2 104.2">
  <!-- Generator: Adobe Illustrator 29.3.1, SVG Export Plug-In . SVG Version: 2.1.0 Build 151)  -->
  <defs>
    <style>
      .st0 {
        fill: #65402e;
      }

      .st1 {
        fill: none;
      }

      .st2 {
        fill: #d4b096;
      }

      .st3 {
        opacity: .4;
      }

      .st4 {
        fill: #ddd1c3;
      }

      .st5 {
        clip-path: url(#clippath);
      }
    </style>
    <clipPath id="clippath">
      <rect class="st1" x="-501.4" y="-527.1" width="750" height="500"/>
    </clipPath>
  </defs>
  <g id="BACKGROUND">
    <g class="st5">
      <g class="st3">
        <g>
          <path class="st2" d="M202.5,42.8c-22.5.3-42.7-5.3-61.8-15.5-17.1-9.2-29.4-22.9-38.3-39.9-2.6-4.9-5.1-9.9-7.1-15.1-2.5-6.6-6.8-11.1-13.4-13.7-4-1.6-7.9-3.5-11.6-5.6-13.5-7.5-20.4-19.4-21-34.7-.7-16.1,5.4-29.9,16-41.8,4.4-5,9.3-9.6,14.2-14.2,3.7-3.5,8.1-5.8,13.5-6,.8,0,1.6-.2,2.3-.6,5.9-3,11.8-6,17.6-9.1,5.5-3,9.6-7.4,13-12.7,3.3-5.2,6.9-10.3,10.8-15.2,8.1-10.2,19.1-16.2,30.9-20.9,17.3-7,35-12.2,53.5-14.7,27.1-3.7,52.9.7,76.7,14.3,4.2,2.4,8.2,5.6,11.8,8.8,7.2,6.6,10.2,15,9.6,24.7-.4,6.7-1.1,13.3-1.6,20-.3,4.9,1.1,9.3,3.8,13.3,3.3,4.8,6.8,9.5,10.1,14.2,10.8,15.5,18,32.2,18.2,51.4.2,16.1-4.5,30.7-15.2,42.9-7.3,8.4-17,13.3-27.2,17.1-8.2,3.1-16.5,5.9-24.8,8.5-10.8,3.5-20,9.3-27.6,17.7-4.2,4.6-8.6,9-13.2,13.1-8.4,7.4-18.6,10.9-29.5,12.4-3.5.5-7,.7-9.6.9Z"/>
          <path class="st2" d="M97.9,25.9c4.6.6,9.2,2.2,11.8,7.1.3.5,1,.8,1.5,1.1,4.9,3.4,10.5,4.2,16.3,4.8,3.6.4,7.1,1,10.1,3.2,4.6,3.4,5.1,8.3,1,12.2-6.1,5.9-13.1,9-21.7,6.6-1.7-.5-3.5-1.2-4.9-2.4-5.8-4.7-12.4-6.5-19.6-7.1-3.7-.3-7.1-1.8-9.7-4.7-3.6-3.9-4.7-11.1.9-15.4,4.1-3.1,8.5-5.2,14.2-5.5Z"/>
        </g>
      </g>
    </g>
  </g>
  <g id="OBJECTS">
    <g>
      <path class="st0" d="M55.3,33.4h-17.2v21.3c0,8.7,7.8,19.7,17.2,19.7s17.2-11,17.2-19.7v-21.3h-17.2Z"/>
      <path class="st4" d="M69.3,36.7v17.9c0,7.2-6.6,16.4-14.1,16.4s-14.1-9.2-14.1-16.4v-17.9h28.2"/>
      <path class="st0" d="M44.8,56.3c0,8.9,6.1,12.3,10.4,12.3s10.4-3,10.4-12.3h-20.9Z"/>
      <path class="st0" d="M72,59.8c-.8,0-1.6,0-2.5-.2l.2-2.7c8.1,1.2,12.5-4.1,13.7-8.9,1-3.7.3-7.2-1.6-8.6-3.7-2.6-10,4-10,4l-1.6-1.7c.2-.4,7.5-8.3,12.8-4.6,2.8,2,3.9,6.8,2.6,11.7-1.4,5.3-5.8,10.9-13.5,10.9Z"/>
    </g>
  </g>
</svg>