<?xml version="1.0" encoding="UTF-8"?>
<svg id="OBJECTS" xmlns="http://www.w3.org/2000/svg" version="1.1" xmlns:xlink="http://www.w3.org/1999/xlink" viewBox="0 0 104.2 104.2">
  <!-- Generator: Adobe Illustrator 29.3.1, SVG Export Plug-In . SVG Version: 2.1.0 Build 151)  -->
  <defs>
    <style>
      .st0 {
        fill: #ede0d1;
      }

      .st1 {
        fill: #65402e;
      }

      .st2 {
        fill: none;
      }

      .st3 {
        fill: #ccfffd;
      }

      .st4 {
        fill: #ddd1c3;
      }

      .st5 {
        fill: #42281c;
      }
    </style>
    <clipPath id="clippath">
      <rect class="st2" x="-123.6" y="-527.1" width="750" height="500"/>
    </clipPath>
  </defs>
  <path class="st1" d="M85.7,34.4c3.9,2.3,5.4,7.7,3.6,13.2-1.9,5.6-7.4,11.6-17.2,12.2.5-1,.8-2,1.1-3.1,7.6-.9,11.9-5.6,13.3-10.1,1.4-4.1.4-8.1-2.2-9.6-3.9-2.2-8.7,1.7-10.8,3.8v-4c3.1-2.4,7.9-5,12.3-2.4Z"/>
  <path class="st1" d="M73.4,40.8v12.8c0,1.1-.1,2.1-.3,3.1-1,.1-2,.2-3.1.2.3-1,.4-2.1.4-3.3v-13.2l1.9,1.6s.4-.5,1.1-1.1Z"/>
  <path class="st1" d="M73.4,36.8v4c-.7.7-1.1,1.1-1.1,1.1l-1.9-1.6v-.8h0c.5-.6,1.6-1.7,3-2.8Z"/>
  <path class="st1" d="M73.4,33.5v3.3c-1.4,1.1-2.5,2.2-3,2.8v-3.1h-1.7c0-1,0-2.1,0-3h4.7Z"/>
  <path class="st1" d="M73.1,56.7c-.2,1.1-.6,2.1-1.1,3.1-.5,0-1.1,0-1.6,0s-1.2,0-1.7,0c.6-.9,1-1.9,1.3-3,1.1,0,2.1,0,3.1-.2Z"/>
  <path class="st1" d="M70.4,59.9c.6,0,1.1,0,1.6,0-3.2,6.8-11.6,10.8-20.3,10.8s-21.7-6.5-21.7-17v-20.1h5.1c-.1.9-.2,1.9-.2,3h-1.9v17.1c0,9.1,9.6,14,18.7,14s13.7-2.7,16.9-7.8c.6,0,1.2,0,1.7,0Z"/>
  <path class="st4" d="M70.4,40.3v13.2c0,1.2-.2,2.2-.4,3.3-.8,0-1.6,0-2.4-.1.5-1.2.7-2.5.7-4.1v-7.1s.4-4.7.4-9.1h1.7v3.1h0c-.2.2-.3.4-.4.4l.4.3Z"/>
  <path class="st4" d="M70.4,39.6v.8l-.4-.3s.2-.2.4-.4Z"/>
  <path class="st4" d="M70,56.8c-.3,1.1-.8,2.1-1.3,3-.6,0-1.1,0-1.7-.1l.2-2.1c.1-.3.3-.6.4-.9.8,0,1.6.1,2.4.1Z"/>
  <path class="st1" d="M68.7,33.5c0,.9,0,2,0,3h-33.7c0-1.1.1-2.1.2-3h33.5Z"/>
  <path class="st0" d="M68.7,33.5h-33.5c.2-1.6.6-2.9,1.2-3.3,2.4-1.8,8.4,1.3,9.8,0,1.4-1.3,2.6-5.2,5.3-5.3,2.7-.1,5.8,4.2,8.2,4.5,2.4.3,7.4-2.4,8.4,0,.3.7.4,2.2.5,4.1Z"/>
  <path class="st0" d="M51.8,36.5h16.9c0,4.4-.4,9.1-.4,9.1v-6.1h-33v6.1s-.4-4.8-.2-9.1h16.8Z"/>
  <path class="st5" d="M68.3,45.5v7.1c0,1.5-.3,2.9-.7,4.1,0,0-.2,0-.3,0v.9c-.4.5-.6,1-1,1.4h0s-29,0-29,0h0c-1.2-1.6-2-3.7-2-6.4v-7.1h33Z"/>
  <path class="st0" d="M68.3,39.4v6.1h-33v-6.1h33Z"/>
  <path class="st4" d="M35.3,45.5v7.1c0,2.6.8,4.7,2,6.4,4,5.5,12.9,6.1,14.5,6.1s10.5-.6,14.5-6.1c.3-.4.6-.9.9-1.4l-.2,2.1c.6,0,1.2.1,1.7.1-3.2,5.1-10.2,7.8-16.9,7.8s-18.7-4.9-18.7-14v-17.1h1.9c-.2,4.3.2,9.1.2,9.1Z"/>
  <path class="st3" d="M67.3,56.7c.1,0,.2,0,.3,0-.1.3-.2.6-.4.9v-.9Z"/>
  <path class="st1" d="M66.3,59h0c-4,5.5-12.9,6.1-14.5,6.1s-10.5-.6-14.5-6.1h0s29,0,29,0Z"/>
</svg>