<?xml version="1.0" encoding="UTF-8"?>
<svg id="OBJECTS" xmlns="http://www.w3.org/2000/svg" version="1.1" viewBox="0 0 104.2 104.2">
  <!-- Generator: Adobe Illustrator 29.3.1, SVG Export Plug-In . SVG Version: 2.1.0 Build 151)  -->
  <defs>
    <style>
      .st0 {
        fill: #65402e;
      }

      .st1 {
        fill: #ddd1c3;
      }

      .st2 {
        fill: #42281c;
      }
    </style>
  </defs>
  <path class="st0" d="M85.7,34.5c3.9,2.3,5.4,7.7,3.6,13.2-1.9,5.6-7.4,11.6-17.2,12.2.5-1,.8-2,1-3.1,7.6-.9,11.9-5.6,13.3-10.1,1.4-4.1.4-8.1-2.2-9.6-3.9-2.2-8.7,1.7-10.8,3.8v-4c3.1-2.4,7.9-5,12.3-2.4Z"/>
  <path class="st0" d="M73.4,40.9v12.8c0,1.1-.1,2.1-.3,3.1-1,.1-2,.2-3.1.2.3-1,.5-2.1.5-3.3v-13.2l1.9,1.6s.4-.5,1.1-1.1Z"/>
  <path class="st0" d="M73.4,36.9v4c-.7.7-1.1,1.1-1.1,1.1l-1.9-1.6v-.8h0c.5-.6,1.6-1.7,3-2.8Z"/>
  <path class="st0" d="M73.4,33.6v3.3c-1.4,1.1-2.5,2.2-3,2.8v-3.1h-37.3v17.1c0,9.1,9.6,14,18.6,14s13.7-2.7,16.9-7.8c.6,0,1.2,0,1.7,0s1.1,0,1.7,0c-3.2,6.8-11.6,10.8-20.3,10.8s-21.6-6.5-21.6-17v-20.1h43.3Z"/>
  <path class="st0" d="M73.1,56.8c-.2,1.1-.6,2.1-1,3.1-.5,0-1.1,0-1.7,0s-1.1,0-1.7,0c.6-.9,1-1.9,1.3-3,1.1,0,2.1,0,3.1-.2Z"/>
  <path class="st1" d="M70.4,40.5v13.2c0,1.2-.2,2.2-.5,3.3-.8,0-1.6,0-2.4-.1.5-1.2.7-2.5.7-4.1v-13.2h-33v13.2c0,1.9.4,3.4,1,4.8,3.3,7,13.7,7.7,15.5,7.7s12-.7,15.4-7.5l-.2,2.1c.6,0,1.2.1,1.7.1-3.2,5.1-10.2,7.8-16.9,7.8s-18.6-4.9-18.6-14v-17.1h37.3v3.1h0c-.2.2-.4.4-.4.4l.4.3Z"/>
  <path class="st1" d="M70.4,39.7v.8l-.4-.3s.2-.2.4-.4Z"/>
  <path class="st1" d="M70,57c-.3,1.1-.8,2.1-1.3,3-.6,0-1.1,0-1.7-.1l.2-2.1c0,0,0-.1.1-.2.1-.2.2-.4.3-.7.8,0,1.6.1,2.4.1Z"/>
  <path class="st0" d="M68.3,39.5v13.2c0,1.5-.3,2.9-.7,4.1,0,0-.2,0-.3,0v.7h-31c-.7-1.3-1-2.9-1-4.8v-13.2h33Z"/>
  <path class="st0" d="M67.3,56.8c.1,0,.2,0,.3,0,0,.2-.2.5-.3.7h0v-.7Z"/>
  <path class="st0" d="M67.3,57.5c0,0,0,.1-.1.2v-.2h.1Z"/>
  <path class="st2" d="M67.2,57.5v.2c-3.5,6.8-13.6,7.5-15.4,7.5s-12.2-.7-15.5-7.7h30.9Z"/>
</svg>