<?xml version="1.0" encoding="UTF-8"?>
<svg id="Layer_1" xmlns="http://www.w3.org/2000/svg" version="1.1" viewBox="0 0 4000 4000">
  <!-- Generator: Adobe Illustrator 29.3.1, SVG Export Plug-In . SVG Version: 2.1.0 Build 151)  -->
  <defs>
    <style>
      .st0 {
        fill: #fff;
      }
    </style>
  </defs>
  <rect class="st0" y="0" width="4000" height="4000"/>
  <g>
    <path d="M1681.4,876.6h-625.9v626.7h625.9v-626.7ZM1591.3,1411.6h-445.5v-445.3h445.5v445.3Z"/>
    <path d="M2942.7,876.3h-625.7v625.7h625.7v-625.7ZM2853.3,1412.7h-446.1v-445.3h446.1v445.3Z"/>
    <path d="M1055.7,2764.1h625.6v-625.7h-625.6v625.7ZM1146.3,2229.9h445.3v445.3h-445.3v-445.3Z"/>
    <path d="M1864.8,2678v-1.3h-1.3l1.3,1.3Z"/>
    <path d="M1953.5,2316.3v1.3h1.3l-1.3-1.3Z"/>
    <path d="M2312.8,2317.5v91.1h-89v85.2h-90.7v-87.6h-179.6v-88.5h-91.2v180.7h-85.9v90.3h88.4v88.2h181.7v88.8h356v-179.6h-84v-90.5h87.7v-89.1h88.4v-88.8h-181.9ZM2040.7,2586.5h-83.1v-86.3h83.1v86.3ZM2222.1,2676.7h-84.1v-86.3h84.1v86.3Z"/>
    <path d="M2765.1,1865.2v1.3l1.3-1.3h-1.3Z"/>
    <path d="M2673.7,1598.5v178h-267.9v88.8h176.6v93.3h-86.5c0,122.4,0,240.1,0,357.7h90.2v90.1h88.9v-269.2h-86.4v-91.4h86.4v-180.5h90.1v-266.7h-91.4Z"/>
    <path d="M2495.9,2316.2h-1.2v1.3h1.2v-1.3Z"/>
    <path d="M2675,2135.9v1.2h1.3l-.7-.6-.7-.6Z"/>
    <path d="M2404.4,1685.1c0,.4,0,.9,0,1.3h1.3l-1.3-1.3Z"/>
    <path d="M2405.6,1775.3l-1,1.1h1.2v-1.3l-.2.2c.1-.1.2-.2.2-.2h-1.2c0,.4,0,.9,0,1.3,0,0,.7-.7,1-1.1Z"/>
    <path d="M2318.1,1775.1h86.5c0-29.6,0-59.2-.1-88.8h-181v86h-90v-84.3h-89.9c0,118.6,0,237.2,0,355h361v-176.5h-86.5v-91.4ZM2221.9,1953.6h-83.6v-86h83.6v86Z"/>
    <path d="M2404.5,1866.6h1.2v-1.3h-1.2v1.3Z"/>
    <path d="M2765.1,1866.5h1.3c0-.4,0-.9,0-1.3,0,0-1.3,1.3-1.3,1.3Z"/>
    <path d="M2853.7,2227.5h-84.5v90.6h87.6v85.5h85.8v-805.7h-87.7v268.5h-88.5c0,29,0,58.1,0,91.7h87.3v269.3Z"/>
    <path d="M1412.5,1775.1v-91.7h-91.1v-85h-90.7v179h-175.3v178.1h266.9v-180.3h90.1Z"/>
    <path d="M1322.4,1955.4v1.3l1.2-1.3h-1.2Z"/>
    <path d="M2042.4,1686.6c0,.5,0,.9,0,1.4,0,0,.9-1,1.2-1.3-.2.3-1.2,1.4-1.2,1.4h1.3c0-.5,0-1,0-1.4-.4,0-.8,0-1.2,0Z"/>
    <path d="M1862.1,1598.3v85h-89.2v-84.4h-177v87.7h88.5v88.6h87.9v90.2h91.1v-91.7h92.5v-86.9c30.9,0,58.7,0,86.5,0,0-29.1,0-58.2,0-88.4h-180.3Z"/>
    <path d="M2136.3,1414.2v179.1h86.2v-356.1h-178.9c.5,59.1,1,118.1,1.6,177.1h91.2Z"/>
    <path d="M1774.6,2046.9v176.4h90.7v-87.5h86v-269.3h-86.6v180.4h-90.1Z"/>
    <path d="M1864.7,1866.5v-1.2h-1.3v1.2h1.3Z"/>
    <path d="M2495.1,2407.2l.8-.8h-1.2v1.3l.3-.3c-.2.2-.3.3-.3.3h1.2v-1.3s-.4.5-.8.8Z"/>
    <path d="M2495.9,2679h91.8v86.4h85.2v-179.6h-88.1v-178.1c-29.7,0-59.3,0-89,0,0,88.9,0,177.8,0,271.3Z"/>
    <path d="M2584.9,2407.6h1.2v-1.3h-1.2v1.3Z"/>
    <path d="M1683.4,1775.4l1,.9v-1.2h-1.3.1c0,0-.1,0-.1,0v1.2h1.3s-.6-.6-1-.9Z"/>
    <path d="M1413.8,1776.4v-1.2h-1.3v1.2h1.3Z"/>
    <path d="M1594.1,1955.4h-1.2v1.3l.6-.7.6-.7Z"/>
    <path d="M1683.1,1867.5v-91.1h-269.3v88h90.2v91.1h88.9v-87.9h90.2Z"/>
    <path d="M1502.7,1956.7h1.2v-1.3h-1.2v1.3Z"/>
    <path d="M1323.6,2043.2h179.1v-86.5h-179.1c0,28.9,0,57.8,0,86.5Z"/>
    <path d="M1322.4,1956.7h1.2v-1.3s-1.2,1.3-1.2,1.3Z"/>
    <path d="M1777.2,1057.3v86.5h176.2v-86.5h-176.2Z"/>
    <path d="M1776.8,1501.9h86.5v-176.2h-86.5v176.2Z"/>
    <path d="M1593.5,1956.1c-.3.3-.6.7-.6.7h1.2v-1.3s-.3.3-.6.7Z"/>
    <path d="M1594.1,1956.7c0,29,0,58,0,88.9h179.1v-88.9h-179.1Z"/>
    <path d="M1773.3,2045.7v1.2h1.3v-1.2h-1.3Z"/>
    <path d="M2944,2499.7h-176.4v84.4h176.4v-84.4Z"/>
    <path d="M2492.4,1598.6h-86.7v86.5c28.9,0,57.7,0,86.7,0v-86.5Z"/>
    <path d="M2404.4,1685.1s1.3,1.3,1.3,1.3v-1.3h-1.3Z"/>
    <path d="M1864.6,1324.4c28.7,0,57.4,0,87.1,0v-90.5c-28.6,0-57.2,0-87.1,0v90.6Z"/>
    <path d="M1864.5,1325.5l-1.2-1.2v1.3h1.3v-1.3h-1.3s.8.9,1.2,1.2Z"/>
    <path d="M1951.7,1233.8c.5,0,1,0,1.4,0,0,0-1.4-1.3-1.4-1.3v1.3Z"/>
    <path d="M2676.3,2046.9v-1.2h-1.3v1.2h1.3Z"/>
    <path d="M2675.6,2136.5c.3.3.7.6.7.6v-1.2h-1.3s.3.3.7.6Z"/>
    <path d="M2762.7,2135.9v-89h-86.4v89h86.4Z"/>
    <path d="M2043.9,1415.5h1.3s-.9-.9-1.2-1.2l1.2,1.2c0-.4,0-.9,0-1.3h-1.3v1.3Z"/>
    <path d="M1957.2,1502h86.7v-86.5c-28.9,0-57.7,0-86.7,0v86.5Z"/>
    <path d="M2317,2138.7v84.9h84.7v-84.9h-84.7Z"/>
    <path d="M1141.8,1599.1h-86.3v83.1h86.3v-83.1Z"/>
    <path d="M2041.5,2229.9h-86.7v86.5c28.9,0,57.7,0,86.7,0v-86.5Z"/>
    <path d="M1953.5,2316.3s1.3,1.3,1.3,1.3v-1.3h-1.3Z"/>
    <path d="M2132.7,967.4h-84.7v84.5h84.7v-84.5Z"/>
    <path d="M1861.3,877.2h-85.3v84.5h85.3v-84.5Z"/>
    <path d="M2042.4,1235.7c0-29.9,0-59.7,0-90.7h-87.7c-.5,29.2-1.1,58.4-1.5,87.6,29.7,1.1,59.4,2.1,89.2,3.1Z"/>
    <path d="M1953.2,1233.8c0-.4,0-.8,0-1.2-.5,0-.9,0-1.4,0,0,0,1.4,1.3,1.4,1.2Z"/>
    <path d="M2043.5,1235.8c-.2.3-1.2,1.4-1.2,1.4h1.3c0-.5,0-1,0-1.4-.4,0-.8,0-1.2,0,0,.5,0,.9,0,1.4,0,0,.9-1,1.2-1.3Z"/>
    <path d="M1954.7,1145c0-.4,0-.9,0-1.3,0,0-.7.7-1.1,1.1l1.1-1.1h-1.3v1.3h1.3Z"/>
    <path d="M2137.3,2228.9v86.3h84.1v-86.3h-84.1Z"/>
    <path d="M1776.8,2764.5h86.7v-86.5c-28.9,0-57.7,0-86.7,0v86.5Z"/>
    <path d="M1864.8,2678s-1.3-1.3-1.3-1.3v1.3h1.3Z"/>
    <path d="M2858.5,2681.2v83.6h86v-83.6h-86Z"/>
    <path d="M1501.2,1057.4h-264.9v265.2h264.9v-265.2Z"/>
    <path d="M2762.4,1056.6h-264.9v265.2h264.9v-265.2Z"/>
    <path d="M1235.6,2585.7h264.2v-266.5h-264.2v266.5Z"/>
  </g>
  <g>
    <path d="M3170.7,977.5c-27.6,0-50-22.4-50-50v-227.3h-227.3c-27.6,0-50-22.4-50-50s22.4-50,50-50h277.3c27.6,0,50,22.4,50,50v277.3c0,27.6-22.4,50-50,50Z"/>
    <path d="M829.3,977.5c-27.6,0-50-22.4-50-50v-277.3c0-27.6,22.4-50,50-50h277.3c27.6,0,50,22.4,50,50s-22.4,50-50,50h-227.3v227.3c0,27.6-22.4,50-50,50Z"/>
    <path d="M3170.7,3041.7h-277.3c-27.6,0-50-22.4-50-50s22.4-50,50-50h227.3v-227.3c0-27.6,22.4-50,50-50s50,22.4,50,50v277.3c0,27.6-22.4,50-50,50Z"/>
    <path d="M1106.5,3041.7h-277.3c-27.6,0-50-22.4-50-50v-277.3c0-27.6,22.4-50,50-50s50,22.4,50,50v227.3h227.3c27.6,0,50,22.4,50,50s-22.4,50-50,50Z"/>
  </g>
</svg>