<svg width="24" height="24" viewBox="0 0 24 24" fill="none" xmlns="http://www.w3.org/2000/svg">
<path fill-rule="evenodd" clip-rule="evenodd" d="M5.34644 3.59415C4.85365 3.32063 4.51738 3.32763 4.31355 3.40601C4.0818 3.49512 3.82258 3.7534 3.6509 4.34859C3.29824 5.57127 3.465 7.80454 4.67055 10.5052C4.85579 10.9202 4.70562 11.4248 4.33514 11.6323C3.96465 11.8398 3.51415 11.6715 3.32891 11.2566C2.03445 8.35676 1.70121 5.64297 2.22355 3.83206C2.48938 2.91045 3.0114 2.13032 3.82652 1.81689C4.39389 1.59874 5.00301 1.64559 5.61367 1.89669C5.928 1.39871 6.45201 1.08008 7.03165 1.08008H16.9678C17.5474 1.08008 18.0715 1.39871 18.3858 1.89669C18.9964 1.64559 19.6056 1.59874 20.1729 1.81689C20.988 2.13032 21.5101 2.91045 21.7759 3.83206C22.2982 5.64297 21.965 8.35676 20.6705 11.2566C20.4853 11.6715 20.0348 11.8398 19.6643 11.6323C19.2938 11.4248 19.1437 10.9202 19.3289 10.5052C20.5345 7.80454 20.7012 5.57127 20.3485 4.34859C20.1769 3.7534 19.9177 3.49512 19.6859 3.40601C19.4821 3.32763 19.1458 3.32063 18.653 3.59414C18.5098 5.43229 18.1609 8.55491 17.3284 11.3303C16.8755 12.8403 16.2618 14.3093 15.4174 15.4147C14.5604 16.5368 13.4321 17.3214 11.9997 17.3214C10.5674 17.3214 9.43905 16.5368 8.582 15.4147C7.73764 14.3093 7.12394 12.8403 6.67105 11.3303C5.83859 8.55491 5.4896 5.43229 5.34644 3.59415ZM6.80829 3.00306C6.80035 2.8863 6.87997 2.76022 7.03165 2.76022H16.9678C17.1195 2.76022 17.1991 2.8863 17.1912 3.00306C17.0756 4.7023 16.7533 7.97214 15.9065 10.7953C15.4823 12.2094 14.9443 13.4497 14.2777 14.3225C13.6237 15.1787 12.8817 15.6413 11.9997 15.6413C11.1178 15.6413 10.3758 15.1787 9.72179 14.3225C9.05513 13.4497 8.51711 12.2094 8.09295 10.7953C7.24619 7.97214 6.92383 4.7023 6.80829 3.00306Z" fill="#262222"/>
<path fill-rule="evenodd" clip-rule="evenodd" d="M14.6002 18.5762C14.0768 17.7904 13.2053 17.6608 12.5566 17.8167C12.381 17.8589 12.1958 17.8815 11.9997 17.8815C11.8036 17.8815 11.6184 17.8589 11.4428 17.8167C10.7941 17.6608 9.92269 17.7904 9.39921 18.5762L8.59097 19.7895C7.72977 21.0823 8.55347 22.9219 9.99356 22.9219H14.0059C15.446 22.9219 16.2697 21.0823 15.4085 19.7895L14.6002 18.5762ZM12.8712 19.4594C13.0039 19.4276 13.1293 19.4328 13.2254 19.4626C13.317 19.491 13.368 19.5359 13.398 19.581L14.2063 20.7943C14.3293 20.9789 14.2116 21.2417 14.0059 21.2417H9.99356C9.78784 21.2417 9.67016 20.9789 9.79319 20.7943L10.6014 19.581C10.6314 19.5359 10.6824 19.491 10.7741 19.4626C10.8702 19.4328 10.9956 19.4276 11.1283 19.4594C11.4089 19.5269 11.6996 19.5616 11.9997 19.5616C12.2999 19.5616 12.5905 19.5269 12.8712 19.4594Z" fill="#262222"/>
</svg>
