<svg width="24" height="24" viewBox="0 0 24 24" fill="none" xmlns="http://www.w3.org/2000/svg">
<path fill-rule="evenodd" clip-rule="evenodd" d="M2.75 3C2.33579 3 2 3.33579 2 3.75C2 4.16421 2.33579 4.5 2.75 4.5C3.56705 4.5 4.27448 5.06748 4.45172 5.86507L4.88165 7.79975C4.88477 7.84674 4.89235 7.89372 4.90449 7.94008L4.95944 8.14979L5.01786 8.4127C5.02935 8.4644 5.04592 8.51366 5.06693 8.56006L6.7421 14.9539C7.28947 17.043 9.17732 18.5 11.337 18.5H16.5006C19.1239 18.5 21.2506 16.3734 21.2506 13.75V11.0407C21.2506 10.4768 21.1693 9.79647 20.7867 9.19622C19.9258 7.8456 18.424 7 16.7814 7H6.24052L5.916 5.53968C5.58625 4.05578 4.2701 3 2.75 3ZM8.19313 14.5737L6.60182 8.5H16.7814C17.9049 8.5 18.9327 9.07834 19.5218 10.0025C19.681 10.2523 19.7506 10.5965 19.7506 11.0407V13.75C19.7506 15.5449 18.2955 17 16.5006 17H11.337C9.85933 17 8.56764 16.0031 8.19313 14.5737Z" fill="#262222"/>
<path d="M16.75 21.75C17.3023 21.75 17.75 21.3023 17.75 20.75C17.75 20.1977 17.3023 19.75 16.75 19.75C16.1977 19.75 15.75 20.1977 15.75 20.75C15.75 21.3023 16.1977 21.75 16.75 21.75Z" fill="#262222"/>
<path d="M9.75 20.75C9.75 21.3023 9.30228 21.75 8.75 21.75C8.19772 21.75 7.75 21.3023 7.75 20.75C7.75 20.1977 8.19772 19.75 8.75 19.75C9.30228 19.75 9.75 20.1977 9.75 20.75Z" fill="#262222"/>
</svg>
