<svg width="25" height="24" viewBox="0 0 25 24" fill="none" xmlns="http://www.w3.org/2000/svg">
<path fill-rule="evenodd" clip-rule="evenodd" d="M11.2081 21.2203C11.7651 21.5819 12.4346 21.5819 12.9916 21.2203C15.2217 19.7726 20.9322 15.6687 21.9083 11.0388C22.7897 6.85815 20.5528 2.51432 16.7647 2.4519C16.6865 2.45061 16.6072 2.44995 16.5267 2.44995C15.0018 2.44995 13.6404 3.3031 12.8423 3.93384C12.4062 4.27843 11.7935 4.27843 11.3575 3.93384C10.5593 3.3031 9.19794 2.44995 7.67303 2.44995C7.59251 2.44995 7.51316 2.45061 7.43497 2.4519C3.64693 2.51432 1.40997 6.85815 2.29138 11.0388C3.2675 15.6687 8.97796 19.7726 11.2081 21.2203ZM20.4485 10.6526C20.0731 12.4331 18.709 14.3234 16.9344 16.0565C15.2082 17.7424 13.3147 19.0687 12.2395 19.7667C12.1476 19.8263 12.0521 19.8263 11.9603 19.7667C10.885 19.0687 8.99148 17.7424 7.26527 16.0565C5.49074 14.3234 4.12661 12.4331 3.75123 10.6526C3.01925 7.18078 4.91381 4.17376 7.45703 4.13185C7.52779 4.13069 7.59978 4.13009 7.67303 4.13009C8.73421 4.13009 9.78281 4.74566 10.4927 5.30667C11.4472 6.06101 12.7525 6.06101 13.707 5.30668C14.4169 4.74566 15.4655 4.13009 16.5267 4.13009C16.5999 4.13009 16.6719 4.13069 16.7427 4.13185C19.2859 4.17376 21.1805 7.18077 20.4485 10.6526Z" fill="#6E6360"/>
</svg>
