<svg width="25" height="24" viewBox="0 0 25 24" fill="none" xmlns="http://www.w3.org/2000/svg">
<path fill-rule="evenodd" clip-rule="evenodd" d="M4.36429 8.66853L10.2011 3.99908C11.662 2.83038 13.7378 2.83038 15.1987 3.99908L21.0355 8.66853C22.0758 9.50082 22.6335 10.7965 22.5229 12.1242L21.8527 20.1662C21.7663 21.2027 20.8998 22.0001 19.8596 22.0001H15.9747C14.6096 22.0001 13.6457 20.6627 14.0774 19.3676L14.3302 18.6089C14.7581 17.3255 13.8028 16.0001 12.4499 16.0001C11.097 16.0001 10.1417 17.3255 10.5695 18.6089L10.8224 19.3676C11.2541 20.6627 10.2901 22.0001 8.92502 22.0001H5.54014C4.49996 22.0001 3.63343 21.2027 3.54705 20.1661L2.87688 12.1242C2.76624 10.7965 3.32392 9.50082 4.36429 8.66853ZM5.30133 9.83983L11.1381 5.17039C12.0512 4.43995 13.3486 4.43995 14.2616 5.17039L20.0984 9.83983C20.7486 10.36 21.0972 11.1698 21.028 11.9996L20.3579 20.0416C20.3363 20.3007 20.1196 20.5001 19.8596 20.5001H15.9747C15.6334 20.5001 15.3925 20.1657 15.5004 19.8419L15.7533 19.0833C16.5049 16.8285 14.8266 14.5001 12.4499 14.5001C10.0731 14.5001 8.39489 16.8285 9.14647 19.0833L9.39936 19.8419C9.50728 20.1657 9.2663 20.5001 8.92502 20.5001H5.54014C5.28009 20.5001 5.06346 20.3007 5.04186 20.0416L4.3717 11.9996C4.30255 11.1698 4.6511 10.36 5.30133 9.83983Z" fill="#6E6360"/>
</svg>
