<svg width="25" height="24" viewBox="0 0 25 24" fill="none" xmlns="http://www.w3.org/2000/svg">
<path fill-rule="evenodd" clip-rule="evenodd" d="M12.3 12.7499C14.7162 12.7499 16.6749 10.7912 16.6749 8.37497C16.6749 5.95874 14.7162 4 12.3 4C9.88372 4 7.92498 5.95874 7.92498 8.37497C7.92498 10.7912 9.88372 12.7499 12.3 12.7499ZM12.3 11.2499C13.8878 11.2499 15.1749 9.96277 15.1749 8.37497C15.1749 6.78717 13.8878 5.5 12.3 5.5C10.7122 5.5 9.42498 6.78717 9.42498 8.37497C9.42498 9.96277 10.7122 11.2499 12.3 11.2499Z" fill="#6E6360"/>
<path fill-rule="evenodd" clip-rule="evenodd" d="M6.93266 20.439C4.14742 18.6638 2.30005 15.5476 2.30005 12C2.30005 6.47715 6.7772 2 12.3 2C17.8229 2 22.3 6.47715 22.3 12C22.3 15.5481 20.4522 18.6645 17.6665 20.4396C17.1484 20.8059 16.5256 21.1184 15.8253 21.3609C14.729 21.774 13.5409 22 12.3 22C11.0596 22 9.87191 21.7741 8.77585 21.3613C8.07474 21.1186 7.4512 20.8058 6.93266 20.439ZM9.29601 19.9539C10.1493 20.2453 11.1737 20.4248 12.3 20.4248C13.4267 20.4248 14.4516 20.2452 15.305 19.9536C15.8457 19.7492 16.3601 19.4913 16.8417 19.1863C17.5828 18.652 17.8 18.1269 17.8 17.7748C17.8 17.3717 17.5152 16.7415 16.4848 16.1306C15.487 15.5391 14.011 15.1248 12.3 15.1248C10.589 15.1248 9.11296 15.5391 8.11525 16.1306C7.08481 16.7415 6.80005 17.3717 6.80005 17.7748C6.80005 18.1268 7.01704 18.6517 7.75762 19.1857C8.23974 19.4911 8.7547 19.7494 9.29601 19.9539ZM5.42294 16.9966C6.03739 15.0766 8.88273 13.6248 12.3 13.6248C15.7173 13.6248 18.5627 15.0766 19.1771 16.9967C20.1979 15.5941 20.8 13.8674 20.8 12C20.8 7.30558 16.9945 3.5 12.3 3.5C7.60563 3.5 3.80005 7.30558 3.80005 12C3.80005 13.8674 4.40221 15.5941 5.42294 16.9966Z" fill="#6E6360"/>
</svg>
