<svg width="25" height="24" viewBox="0 0 25 24" fill="none" xmlns="http://www.w3.org/2000/svg">
<path d="M5.25 8C5.25 6.20507 6.70507 4.75 8.5 4.75H10.5C10.9142 4.75 11.25 4.41421 11.25 4C11.25 3.58579 10.9142 3.25 10.5 3.25H8.5C5.87665 3.25 3.75 5.37665 3.75 8V10C3.75 10.4142 4.08579 10.75 4.5 10.75C4.91421 10.75 5.25 10.4142 5.25 10V8Z" fill="#6E6360"/>
<path d="M3.5 12.25C3.08579 12.25 2.75 12.5858 2.75 13C2.75 13.4142 3.08579 13.75 3.5 13.75H21.5C21.9142 13.75 22.25 13.4142 22.25 13C22.25 12.5858 21.9142 12.25 21.5 12.25H3.5Z" fill="#6E6360"/>
<path d="M3.75 14.5V16C3.75 18.6234 5.87665 20.75 8.5 20.75H10.5C10.9142 20.75 11.25 20.4142 11.25 20C11.25 19.5858 10.9142 19.25 10.5 19.25H8.5C6.70507 19.25 5.25 17.7949 5.25 16V14.5H3.75Z" fill="#6E6360"/>
<path d="M19.75 14.5V16C19.75 17.7949 18.2949 19.25 16.5 19.25H14.5C14.0858 19.25 13.75 19.5858 13.75 20C13.75 20.4142 14.0858 20.75 14.5 20.75H16.5C19.1234 20.75 21.25 18.6234 21.25 16V14.5H19.75Z" fill="#6E6360"/>
<path d="M14.5 3.25C14.0858 3.25 13.75 3.58579 13.75 4C13.75 4.41421 14.0858 4.75 14.5 4.75H16.5C18.2949 4.75 19.75 6.20507 19.75 8V10C19.75 10.4142 20.0858 10.75 20.5 10.75C20.9142 10.75 21.25 10.4142 21.25 10V8C21.25 5.37665 19.1234 3.25 16.5 3.25H14.5Z" fill="#6E6360"/>
</svg>
