<svg width="25" height="24" viewBox="0 0 25 24" fill="none" xmlns="http://www.w3.org/2000/svg">
<path d="M7.47133 3H5.32847C4.94959 3 4.58623 3.15051 4.31832 3.41842C4.05041 3.68633 3.8999 4.04969 3.8999 4.42857V6.57143M18.8999 3H21.0428C21.4216 3 21.785 3.15051 22.0529 3.41842C22.3208 3.68633 22.4713 4.04969 22.4713 4.42857V6.57143M7.47133 21.5714H5.32847C4.94959 21.5714 4.58623 21.4209 4.31832 21.153C4.05041 20.8851 3.8999 20.5217 3.8999 20.1429V18M18.8999 21.5714H21.0428C21.4216 21.5714 21.785 21.4209 22.0529 21.153C22.3208 20.8851 22.4713 20.5217 22.4713 20.1429V18M7.47133 15.8571V18H9.61419M13.1856 18V15.8571H11.0428M18.8999 8.71429H16.757V6.57143M18.8999 13.7143V11.5714H16.757M16.757 15.8571V18H18.8999M11.757 6.57143H8.8999C8.52102 6.57143 8.15766 6.72194 7.88975 6.98985C7.62184 7.25776 7.47133 7.62112 7.47133 8V10.8571C7.47133 11.236 7.62184 11.5994 7.88975 11.8673C8.15766 12.1352 8.52102 12.2857 8.8999 12.2857H11.757C12.1359 12.2857 12.4993 12.1352 12.7672 11.8673C13.0351 11.5994 13.1856 11.236 13.1856 10.8571V8C13.1856 7.62112 13.0351 7.25776 12.7672 6.98985C12.4993 6.72194 12.1359 6.57143 11.757 6.57143Z" stroke="#6E6360" stroke-width="1.5" stroke-linecap="round" stroke-linejoin="round"/>
</svg>
