<svg width="12" height="12" viewBox="0 0 12 12" fill="none" xmlns="http://www.w3.org/2000/svg">
<path fill-rule="evenodd" clip-rule="evenodd" d="M5.5146 2.01156C5.74166 1.66281 6.25834 1.66281 6.4854 2.01156L7.64858 3.79816C7.72671 3.91816 7.84764 4.00484 7.98746 4.04106L10.0692 4.58035C10.4756 4.68562 10.6353 5.1704 10.3692 5.4912L9.00634 7.13467C8.91481 7.24505 8.86861 7.38531 8.8769 7.52769L9.00032 9.64759C9.02441 10.0614 8.60641 10.361 8.21493 10.2105L6.20944 9.43965C6.07474 9.38787 5.92526 9.38787 5.79056 9.43965L3.78507 10.2105C3.39359 10.361 2.97559 10.0614 2.99968 9.64759L3.1231 7.52769C3.13139 7.38531 3.08519 7.24505 2.99366 7.13467L1.63077 5.4912C1.36474 5.1704 1.5244 4.68562 1.93077 4.58035L4.01254 4.04106C4.15236 4.00484 4.27329 3.91816 4.35142 3.79816L5.5146 2.01156ZM4.97994 4.20737L6 2.64061L7.02006 4.20737C7.2013 4.48575 7.48011 4.68439 7.79938 4.7671L9.60705 5.23537L8.42902 6.65592C8.21703 6.91156 8.10878 7.23822 8.12817 7.57128L8.23551 9.41494L6.47853 8.73958C6.17062 8.62123 5.82938 8.62123 5.52147 8.73958L3.76449 9.41494L3.87183 7.57128C3.89122 7.23822 3.78297 6.91156 3.57098 6.65592L2.39296 5.23537L4.20062 4.7671C4.51989 4.68439 4.7987 4.48575 4.97994 4.20737Z" fill="#6E6360"/>
</svg>
